# xmcd CD database file
#
# Track frame offsets:
#	150
#	15478
#	26206
#	40729
#	52180
#	67853
#	76105
#	95504
#	110085
#	120578
#	131854
#	142663
#	154937
#	168886
#	178849
#	195581
#	206301
#	221780
#	232984
#	246563
#	254647
#	265899
#
# Disc length: 3749 seconds
#
# Revision: 0
# Processed by: cddbd v1.5.2PL0 Copyright (c) Steve Scherf et al.
# Submitted via: CDex 1.70beta2
#
DISCID=3b0ea316
DTITLE=Billy Jo Spears - Country Girl
DYEAR=1900
DGENRE=Country
TTITLE0=Blanket on the ground
TTITLE1=Here you come again
TTITLE2=Crystal Chandeliers
TTITLE3=What I've got in mind
TTITLE4=Fire and rain
TTITLE5=Blue blue Sky
TTITLE6=Just the way you are
TTITLE7=It's a heartache
TTITLE8=All I have to do is dream
TTITLE9=This ole house
TTITLE10=Tennessee waltz
TTITLE11=57 Chevrolet
TTITLE12=Cryin' time
TTITLE13=I'm gonna be country girl again
TTITLE14=For the good times
TTITLE15=I'll never love this way again
TTITLE16=Love of the common people
TTITLE17=Silver threads and golden needles
TTITLE18=Blue bayou
TTITLE19=Rocky top
TTITLE20='Til I get it right
TTITLE21=Queen of the silver dollar
EXTD=
EXTT0=
EXTT1=
EXTT2=
EXTT3=
EXTT4=
EXTT5=
EXTT6=
EXTT7=
EXTT8=
EXTT9=
EXTT10=
EXTT11=
EXTT12=
EXTT13=
EXTT14=
EXTT15=
EXTT16=
EXTT17=
EXTT18=
EXTT19=
EXTT20=
EXTT21=
PLAYORDER=
